<svg width="200" height="200" viewBox="0 0 200 200" fill="none" xmlns="http://www.w3.org/2000/svg">
<circle cx="100" cy="100" r="100" fill="black"/>
<path fill-rule="evenodd" clip-rule="evenodd" d="M50 34H61.5H77.5L63.6128 102.916L57.9999 99.2501L61.5 95.5944V67.75V50.875V50.749L61.3533 50.5766C59.9014 48.8702 58.3471 47.0436 58.5121 46.5C58.4553 46.3439 59.4553 45.5797 60.3963 44.8606L60.3964 44.8605L60.3966 44.8604C60.8063 44.5473 61.2048 44.2427 61.5 44.0007V44L65.25 41.5H61.5C57.7609 41.489 56.297 41.0737 54.25 39.9677C51.9208 38.3939 51.2165 36.8315 50 34ZM63.6129 102.916L63.6128 102.916L57.5 133.25L82.75 149.25L91.5 141.861V153.481L88.5 156L90.8816 158H90.8732L99.75 165.5L108.627 158H108.618L111 156L108 153.481V141.919L116.25 149.25L142 133.5L141.97 133.477L142.073 133.5C141.904 133.395 141.742 133.29 141.586 133.184L140.701 132.508C139.039 131.061 138.264 129.123 137.823 124.75C131.119 124.183 127.646 122.448 121.823 117.5L121.823 127.443L108 137.82V134.5C108.189 134.073 108.577 133.974 110.25 133.75C108.816 132.59 108.566 131.982 108 130.5V108.19L117.046 115.163L141.75 100L138 95.24V67.75V50.875V50.7499L138.147 50.5766C139.599 48.8702 141.154 47.0436 140.989 46.5C141.045 46.3439 140.046 45.5798 139.105 44.8608L139.105 44.8607L139.104 44.8606L139.104 44.8606L139.104 44.8602L139.103 44.8598L139.103 44.8595C138.693 44.5464 138.295 44.242 138 44.0001V44H138L134.25 41.5H138C141.739 41.489 143.203 41.0737 145.25 39.9677C147.579 38.3939 148.283 36.8315 149.5 34H138H122H118L122 42V93.1967L108 103.697V42L112 34H108H91.5H87.5L91.5 42V103.802L77.5 93.5446V42L81.5 34H77.5L63.6129 102.916ZM63.6129 102.916L57.5002 133.25L59.4366 131.708C60.7162 130.307 61.3622 128.344 61.75 124.5C68.4536 123.933 71.9269 122.198 77.75 117.25L77.75 127.562L91.5 137.875V134.194C91.2167 134.003 90.6759 133.907 89.5 133.75C90.7079 132.772 91.0755 132.187 91.5 131.141V108.312L82.4999 115.25L63.6129 102.916Z" fill="white"/>
</svg>
